<svg xmlns="http://www.w3.org/2000/svg" viewBox="0 0 420 36" fill="none">
  <!-- TR Turkey -->
  <g transform="translate(0,2)">
    <rect width="48" height="32" rx="4" fill="#E30A17"/>
    <circle cx="18" cy="16" r="8" fill="white"/>
    <circle cx="21" cy="16" r="6" fill="#E30A17"/>
    <polygon points="27,16 29,12.5 31,16 29,14" fill="white"/>
  </g>
  <!-- UK -->
  <g transform="translate(54,2)">
    <rect width="48" height="32" rx="4" fill="#012169"/>
    <line x1="0" y1="0" x2="48" y2="32" stroke="white" stroke-width="5"/>
    <line x1="48" y1="0" x2="0" y2="32" stroke="white" stroke-width="5"/>
    <line x1="0" y1="0" x2="48" y2="32" stroke="#C8102E" stroke-width="3"/>
    <line x1="48" y1="0" x2="0" y2="32" stroke="#C8102E" stroke-width="3"/>
    <line x1="24" y1="0" x2="24" y2="32" stroke="white" stroke-width="8"/>
    <line x1="0" y1="16" x2="48" y2="16" stroke="white" stroke-width="8"/>
    <line x1="24" y1="0" x2="24" y2="32" stroke="#C8102E" stroke-width="5"/>
    <line x1="0" y1="16" x2="48" y2="16" stroke="#C8102E" stroke-width="5"/>
  </g>
  <!-- US -->
  <g transform="translate(108,2)">
    <rect width="48" height="32" rx="4" fill="#B22234"/>
    <rect y="0" width="48" height="3" fill="#B22234"/>
    <rect y="4" width="48" height="3" fill="white"/>
    <rect y="8" width="48" height="3" fill="#B22234"/>
    <rect y="12" width="48" height="3" fill="white"/>
    <rect y="16" width="48" height="3" fill="#B22234"/>
    <rect y="20" width="48" height="3" fill="white"/>
    <rect y="24" width="48" height="3" fill="#B22234"/>
    <rect y="28" width="48" height="3" fill="white"/>
    <rect width="22" height="17" rx="2" fill="#3C3B6E"/>
    <circle cx="5" cy="5" r="1.5" fill="white"/>
    <circle cx="11" cy="5" r="1.5" fill="white"/>
    <circle cx="17" cy="5" r="1.5" fill="white"/>
    <circle cx="5" cy="10" r="1.5" fill="white"/>
    <circle cx="11" cy="10" r="1.5" fill="white"/>
    <circle cx="17" cy="10" r="1.5" fill="white"/>
  </g>
  <!-- DE Germany -->
  <g transform="translate(162,2)">
    <rect width="48" height="10" rx="2" fill="#000000"/>
    <rect y="10" width="48" height="11" fill="#DD0000"/>
    <rect y="21" width="48" height="11" rx="2" fill="#FFCE00"/>
  </g>
  <!-- FR France -->
  <g transform="translate(216,2)">
    <rect width="48" height="32" rx="4" fill="white"/>
    <rect width="16" height="32" rx="2" fill="#002395"/>
    <rect x="32" width="16" height="32" rx="2" fill="#ED2939"/>
  </g>
  <!-- IN India -->
  <g transform="translate(270,2)">
    <rect width="48" height="10" rx="2" fill="#FF9933"/>
    <rect y="10" width="48" height="11" fill="white"/>
    <rect y="21" width="48" height="11" rx="2" fill="#138808"/>
    <circle cx="24" cy="16" r="5" fill="none" stroke="#000080" stroke-width="1.5"/>
    <circle cx="24" cy="16" r="1.5" fill="#000080"/>
  </g>
  <!-- SA Saudi Arabia -->
  <g transform="translate(324,2)">
    <rect width="48" height="32" rx="4" fill="#006C35"/>
    <text x="24" y="20" font-family="Arial" font-size="11" fill="white" text-anchor="middle">🌙</text>
  </g>
  <!-- More indicator -->
  <g transform="translate(378,2)">
    <rect width="36" height="32" rx="4" fill="#E8EEF8"/>
    <text x="18" y="21" font-family="Arial Black" font-size="13" font-weight="900" fill="#1A3C8F" text-anchor="middle">···</text>
  </g>
</svg>
