<svg xmlns="http://www.w3.org/2000/svg" viewBox="0 0 120 80"><clipPath id="r"><rect width="120" height="80" rx="8"/></clipPath><g clip-path="url(#r)"><rect width="120" height="80" fill="#fff"/><g fill="#B22234"><rect y="0" width="120" height="6.15"/><rect y="12.3" width="120" height="6.15"/><rect y="24.6" width="120" height="6.15"/><rect y="36.9" width="120" height="6.15"/><rect y="49.2" width="120" height="6.15"/><rect y="61.5" width="120" height="6.15"/><rect y="73.8" width="120" height="6.2"/></g><rect width="54" height="43" fill="#3C3B6E"/><g fill="#fff"><circle cx="9" cy="7" r="2"/><circle cx="22" cy="7" r="2"/><circle cx="35" cy="7" r="2"/><circle cx="48" cy="7" r="2"/><circle cx="15" cy="17" r="2"/><circle cx="28" cy="17" r="2"/><circle cx="41" cy="17" r="2"/><circle cx="9" cy="27" r="2"/><circle cx="22" cy="27" r="2"/><circle cx="35" cy="27" r="2"/><circle cx="48" cy="27" r="2"/><circle cx="15" cy="37" r="2"/><circle cx="28" cy="37" r="2"/><circle cx="41" cy="37" r="2"/></g></g></svg>